<svg  id="Layer_1" data-name="Layer 1" xmlns="http://www.w3.org/2000/svg" viewBox="-50 -15 200 200"><title>blankutenstrek</title>
<path fill="#ffffff" d="M64.36,58.77C51.51,58.77,43,64.92,38,72.38V0H35.32S24,7.64,0,13.44V18H6.25c6,0,5.47,5,5.47,13.53l0.16,102.75c0,13.47-3.88,19.56-3.88,19.56V158H50c32.89,0,53-28.38,53-54.48C102.92,81.14,90.05,58.77,64.36,58.77ZM48,147.67c-6.42,0-10-2.07-10-2.07V78.25a35,35,0,0,1,13.26-3.11c17.2,0,24.16,17.82,24.16,35.23C75.42,130.47,66.22,147.67,48,147.67Z"/></svg>
